<svg width="411" height="188" viewBox="0 0 411 188" fill="none" xmlns="http://www.w3.org/2000/svg">
<g clip-path="url(#clip0_2505_464)">
<path d="M149.048 161.98C143.972 161.98 138.574 160.772 133.257 158.113C109.812 146.351 102.319 115.977 91.604 98.333L87.8174 93.1768V111.546C87.8174 138.858 64.3726 154.327 41.0083 154.327C27.7954 154.327 0 141.597 0 118.313C0 102.764 12.1655 93.4185 34.7241 91.5654L36.1743 93.8213C19.5776 100.75 9.90967 112.593 9.90967 124.839C9.90967 139.1 21.3501 145.706 36.5771 145.706C52.771 145.706 74.8462 130.882 74.8462 117.266L74.6851 45.6426C74.6851 36.0552 74.2822 30.0933 66.145 23.8896L63.4058 21.4727L72.9126 11.3213L74.2822 12.6104C80.9692 18.3306 84.8364 23.1646 86.6895 29.4487L98.4521 17.7666C105.945 18.0083 122.944 23.3257 122.944 31.9463L123.025 80.8501C123.025 84.395 122.058 87.1343 120.527 89.229C118.11 92.2905 111.907 94.7075 105.22 97.769C105.784 98.7358 106.428 99.7832 106.992 100.911L108.442 103.65C118.997 123.389 126.812 147.156 144.375 155.938C147.759 157.63 151.062 158.355 154.124 158.355C158.394 158.355 162.1 156.905 164.597 155.052L165.483 156.985C161.375 160.047 155.493 161.98 149.048 161.98ZM103.286 94.8687C107.073 93.3379 110.859 91.2432 110.859 88.9873L110.376 83.5088C110.054 77.5469 109.893 67.3955 109.893 57.8887C109.893 51.1211 109.973 44.6758 110.134 40.4058C110.134 33.9604 97.5659 31.1406 91.9263 30.4961L87.6562 34.6855C87.8174 35.9746 87.8174 37.3442 87.8174 38.7944V87.6177L89.751 87.5371C95.7129 87.5371 99.6606 89.9541 103.286 94.8687ZM54.7852 94.9492L46.8091 86.7314L54.7852 78.6748L62.9224 86.7314L54.7852 94.9492ZM54.7852 113.56L46.8091 105.342L54.7852 97.2051L62.9224 105.342L54.7852 113.56ZM179.421 142C174.99 137.972 170.64 134.427 167.82 129.109C163.389 132.09 157.749 135.394 151.868 142L150.498 140.711C140.83 132.413 136.641 125.887 136.641 114.527V90.5181C136.641 78.9165 146.309 71.8267 153.56 65.1396C159.763 59.4194 165.161 53.6992 166.853 44.3535L179.341 47.415C177.327 56.2773 172.815 62.5615 167.981 67.7178H177.568V103.892C177.568 120.489 177.971 122.745 188.848 131.849L179.421 142ZM159.441 130.076C159.441 130.076 165.242 127.981 165.806 124.114C165.081 121.456 164.597 118.233 164.597 114.527L164.758 71.021C156.218 79.0776 149.692 83.3477 149.612 90.3569V103.892C149.612 115.816 150.337 123.067 159.441 130.076ZM207.539 187.52C201.738 187.52 196.985 186.15 191.506 182.283L192.795 179.383C199.724 183.25 203.591 183.492 207.62 183.492C216.724 183.492 219.543 171.487 219.543 159.08V131.124C215.676 133.702 211.245 136.844 206.572 142C198.435 134.346 191.265 129.109 191.265 114.527V76.0161C191.265 74.4048 190.862 70.8599 187.236 70.8599H186.833L186.511 70.0542L199.966 60.9502C200.933 60.4668 201.658 60.2251 202.302 60.2251C203.672 60.2251 204.236 61.2725 204.236 62.0781V103.892C204.236 117.75 206.25 124.517 214.146 129.996C214.146 129.996 217.771 128.707 219.543 126.29V76.0161C219.543 74.4854 219.141 70.9404 215.596 70.9404H215.112L214.79 70.0542L228.245 60.9502C229.131 60.4668 229.856 60.2251 230.42 60.2251C231.79 60.2251 232.515 61.353 232.515 62.1587V145.464C232.515 177.771 218.979 187.439 207.539 187.52ZM262.485 187.52C256.685 187.52 251.931 186.15 246.453 182.283L247.742 179.383C254.67 183.25 258.538 183.492 262.566 183.492C271.67 183.492 274.49 171.487 274.49 159.08V131.124C270.623 133.702 266.191 136.844 261.519 142C253.381 134.346 246.211 129.109 246.211 114.527V76.0161C246.211 74.4048 245.808 70.8599 242.183 70.8599H241.78L241.458 70.0542L254.912 60.9502C255.879 60.4668 256.604 60.2251 257.249 60.2251C258.618 60.2251 259.182 61.2725 259.182 62.0781V103.892C259.182 117.75 261.196 124.517 269.092 129.996C269.092 129.996 272.717 128.707 274.49 126.29V76.0161C274.49 74.4854 274.087 70.9404 270.542 70.9404H270.059L269.736 70.0542L283.191 60.9502C284.077 60.4668 284.802 60.2251 285.366 60.2251C286.736 60.2251 287.461 61.353 287.461 62.1587V145.464C287.461 177.771 273.926 187.439 262.485 187.52ZM343.938 142C339.507 137.972 335.156 134.427 332.336 129.109C327.905 132.09 322.266 135.394 316.384 142L315.015 140.711C305.347 132.413 301.157 125.887 301.157 114.527V90.5181C301.157 78.9165 310.825 71.8267 318.076 65.1396C324.28 59.4194 329.678 53.6992 331.37 44.3535L343.857 47.415C341.843 56.2773 337.332 62.5615 332.498 67.7178H342.085V103.892C342.085 120.489 342.488 122.745 353.364 131.849L343.938 142ZM323.958 130.076C323.958 130.076 329.758 127.981 330.322 124.114C329.597 121.456 329.114 118.233 329.114 114.527L329.275 71.021C320.735 79.0776 314.209 83.3477 314.128 90.3569V103.892C314.128 115.816 314.854 123.067 323.958 130.076ZM400.979 142C393.567 135.071 386.155 129.673 386.155 114.527V81.0918C386.155 74.5659 377.373 70.457 371.411 70.457L368.752 72.6323V142H355.781V86.1675C355.781 84.6367 355.459 80.8501 351.672 80.8501H351.27L350.867 79.8027L377.131 58.3721C385.671 58.3721 399.126 64.4951 399.126 72.6323V103.892C399.126 119.925 399.448 123.147 410.566 131.688L400.979 142Z" fill="#743F00"/>
<path d="M337 0H146C142.134 0 139 3.13401 139 7V46C139 49.866 142.134 53 146 53H337C340.866 53 344 49.866 344 46V7C344 3.13401 340.866 0 337 0Z" fill="#743F00"/>
<path d="M188.25 43H180.25V28.25C180.25 26.55 179.933 25.3 179.3 24.5C178.667 23.7 177.85 23.3 176.85 23.3C175.783 23.3 174.733 23.7333 173.7 24.6C172.667 25.4667 171.933 26.5833 171.5 27.95V43H163.5V28.25C163.5 26.5167 163.183 25.2667 162.55 24.5C161.917 23.7 161.1 23.3 160.1 23.3C159.067 23.3 158.033 23.7333 157 24.6C155.967 25.4667 155.217 26.5833 154.75 27.95V43H146.75V16.75H153.95V21.15C154.917 19.5833 156.217 18.3833 157.85 17.55C159.517 16.6833 161.45 16.25 163.65 16.25C165.817 16.25 167.483 16.7667 168.65 17.8C169.817 18.8 170.567 19.9833 170.9 21.35C171.9 19.7167 173.217 18.4667 174.85 17.6C176.517 16.7 178.383 16.25 180.45 16.25C182.117 16.25 183.467 16.5667 184.5 17.2C185.533 17.8 186.317 18.6 186.85 19.6C187.383 20.6 187.75 21.6833 187.95 22.85C188.15 23.9833 188.25 25.1 188.25 26.2V43ZM193.479 43V16.75H201.479V43H193.479ZM193.479 13.75V6.5H201.479V13.75H193.479ZM217.005 43.5C214.772 43.5 212.588 43.1333 210.455 42.4C208.322 41.6667 206.522 40.5833 205.055 39.15L207.805 34.1C209.405 35.2667 210.955 36.15 212.455 36.75C213.988 37.35 215.422 37.65 216.755 37.65C217.788 37.65 218.588 37.4833 219.155 37.15C219.722 36.8167 220.005 36.3 220.005 35.6C220.005 35.1 219.838 34.7167 219.505 34.45C219.172 34.15 218.655 33.8833 217.955 33.65C217.288 33.4167 216.455 33.1667 215.455 32.9C213.455 32.2333 211.788 31.5833 210.455 30.95C209.122 30.3167 208.122 29.55 207.455 28.65C206.788 27.7167 206.455 26.5167 206.455 25.05C206.455 23.2833 206.888 21.75 207.755 20.45C208.655 19.1167 209.922 18.0833 211.555 17.35C213.188 16.6167 215.138 16.25 217.405 16.25C219.205 16.25 220.955 16.5333 222.655 17.1C224.388 17.6667 226.005 18.6167 227.505 19.95L224.405 24.95C222.905 23.9167 221.572 23.1667 220.405 22.7C219.238 22.2333 218.105 22 217.005 22C216.438 22 215.922 22.0667 215.455 22.2C214.988 22.3333 214.605 22.5667 214.305 22.9C214.038 23.2 213.905 23.6 213.905 24.1C213.905 24.6 214.038 25 214.305 25.3C214.605 25.6 215.055 25.8667 215.655 26.1C216.288 26.3 217.072 26.55 218.005 26.85C220.172 27.4833 221.972 28.1333 223.405 28.8C224.838 29.4333 225.905 30.2333 226.605 31.2C227.338 32.1333 227.705 33.3833 227.705 34.95C227.705 37.6167 226.738 39.7167 224.805 41.25C222.905 42.75 220.305 43.5 217.005 43.5ZM241.859 43.5C239.625 43.5 237.442 43.1333 235.309 42.4C233.175 41.6667 231.375 40.5833 229.909 39.15L232.659 34.1C234.259 35.2667 235.809 36.15 237.309 36.75C238.842 37.35 240.275 37.65 241.609 37.65C242.642 37.65 243.442 37.4833 244.009 37.15C244.575 36.8167 244.859 36.3 244.859 35.6C244.859 35.1 244.692 34.7167 244.359 34.45C244.025 34.15 243.509 33.8833 242.809 33.65C242.142 33.4167 241.309 33.1667 240.309 32.9C238.309 32.2333 236.642 31.5833 235.309 30.95C233.975 30.3167 232.975 29.55 232.309 28.65C231.642 27.7167 231.309 26.5167 231.309 25.05C231.309 23.2833 231.742 21.75 232.609 20.45C233.509 19.1167 234.775 18.0833 236.409 17.35C238.042 16.6167 239.992 16.25 242.259 16.25C244.059 16.25 245.809 16.5333 247.509 17.1C249.242 17.6667 250.859 18.6167 252.359 19.95L249.259 24.95C247.759 23.9167 246.425 23.1667 245.259 22.7C244.092 22.2333 242.959 22 241.859 22C241.292 22 240.775 22.0667 240.309 22.2C239.842 22.3333 239.459 22.5667 239.159 22.9C238.892 23.2 238.759 23.6 238.759 24.1C238.759 24.6 238.892 25 239.159 25.3C239.459 25.6 239.909 25.8667 240.509 26.1C241.142 26.3 241.925 26.55 242.859 26.85C245.025 27.4833 246.825 28.1333 248.259 28.8C249.692 29.4333 250.759 30.2333 251.459 31.2C252.192 32.1333 252.559 33.3833 252.559 34.95C252.559 37.6167 251.592 39.7167 249.659 41.25C247.759 42.75 245.159 43.5 241.859 43.5ZM256.662 43V16.75H264.662V43H256.662ZM256.662 13.75V6.5H264.662V13.75H256.662ZM282.639 43.5C280.405 43.5 278.405 43.1333 276.639 42.4C274.905 41.6667 273.439 40.6667 272.239 39.4C271.039 38.1333 270.122 36.6833 269.489 35.05C268.889 33.4167 268.589 31.7 268.589 29.9C268.589 28.0667 268.889 26.3333 269.489 24.7C270.122 23.0667 271.039 21.6167 272.239 20.35C273.439 19.0833 274.905 18.0833 276.639 17.35C278.405 16.6167 280.405 16.25 282.639 16.25C284.872 16.25 286.855 16.6167 288.589 17.35C290.322 18.0833 291.789 19.0833 292.989 20.35C294.189 21.6167 295.105 23.0667 295.739 24.7C296.372 26.3333 296.689 28.0667 296.689 29.9C296.689 31.7 296.372 33.4167 295.739 35.05C295.105 36.6833 294.189 38.1333 292.989 39.4C291.789 40.6667 290.322 41.6667 288.589 42.4C286.855 43.1333 284.872 43.5 282.639 43.5ZM276.789 29.9C276.789 31.2667 277.039 32.4667 277.539 33.5C278.072 34.5333 278.772 35.3333 279.639 35.9C280.505 36.4667 281.505 36.75 282.639 36.75C283.739 36.75 284.722 36.4667 285.589 35.9C286.489 35.3 287.189 34.4833 287.689 33.45C288.189 32.4167 288.439 31.2333 288.439 29.9C288.439 28.5333 288.189 27.3333 287.689 26.3C287.189 25.2667 286.489 24.4667 285.589 23.9C284.722 23.3333 283.739 23.05 282.639 23.05C281.505 23.05 280.505 23.3333 279.639 23.9C278.772 24.4667 278.072 25.2667 277.539 26.3C277.039 27.3333 276.789 28.5333 276.789 29.9ZM325.956 43H317.956V28.25C317.956 26.5167 317.623 25.2667 316.956 24.5C316.323 23.7 315.473 23.3 314.406 23.3C313.673 23.3 312.923 23.5 312.156 23.9C311.39 24.3 310.69 24.85 310.056 25.55C309.456 26.25 308.99 27.05 308.656 27.95V43H300.656V16.75H307.856V21.15C308.523 20.1167 309.356 19.2333 310.356 18.5C311.356 17.7667 312.506 17.2167 313.806 16.85C315.106 16.45 316.523 16.25 318.056 16.25C319.756 16.25 321.123 16.5667 322.156 17.2C323.223 17.8 324.023 18.6 324.556 19.6C325.123 20.6 325.49 21.6833 325.656 22.85C325.856 23.9833 325.956 25.1 325.956 26.2V43ZM332.121 25.2V17.05H338.621V25.2H332.121ZM332.121 43V34.85H338.621V43H332.121Z" fill="white"/>
<path d="M401 148.5H303C297.753 148.5 293.5 152.753 293.5 158V176C293.5 181.247 297.753 185.5 303 185.5H401C406.247 185.5 410.5 181.247 410.5 176V158C410.5 152.753 406.247 148.5 401 148.5Z" stroke="black"/>
<path d="M311.471 176V158.25H314.271V173.525H323.796V176H311.471ZM331.524 176.25C330.507 176.25 329.582 176.075 328.749 175.725C327.932 175.358 327.224 174.867 326.624 174.25C326.024 173.617 325.557 172.9 325.224 172.1C324.907 171.283 324.749 170.417 324.749 169.5C324.749 168.267 325.032 167.142 325.599 166.125C326.165 165.092 326.957 164.267 327.974 163.65C328.99 163.017 330.182 162.7 331.549 162.7C332.915 162.7 334.09 163.017 335.074 163.65C336.074 164.267 336.849 165.083 337.399 166.1C337.949 167.117 338.224 168.208 338.224 169.375C338.224 169.575 338.215 169.767 338.199 169.95C338.182 170.117 338.165 170.258 338.149 170.375H327.674C327.724 171.142 327.932 171.817 328.299 172.4C328.682 172.967 329.165 173.417 329.749 173.75C330.332 174.067 330.957 174.225 331.624 174.225C332.357 174.225 333.049 174.042 333.699 173.675C334.365 173.308 334.815 172.825 335.049 172.225L337.399 172.9C337.115 173.533 336.682 174.108 336.099 174.625C335.532 175.125 334.857 175.525 334.074 175.825C333.29 176.108 332.44 176.25 331.524 176.25ZM327.599 168.55H335.499C335.449 167.8 335.232 167.142 334.849 166.575C334.482 165.992 334.007 165.542 333.424 165.225C332.857 164.892 332.224 164.725 331.524 164.725C330.84 164.725 330.207 164.892 329.624 165.225C329.057 165.542 328.59 165.992 328.224 166.575C327.857 167.142 327.649 167.8 327.599 168.55ZM343.751 176L338.776 162.925H341.626L345.351 173.45L349.076 162.925H351.726L346.751 176H343.751ZM359.185 176.25C358.168 176.25 357.243 176.075 356.41 175.725C355.593 175.358 354.885 174.867 354.285 174.25C353.685 173.617 353.218 172.9 352.885 172.1C352.568 171.283 352.41 170.417 352.41 169.5C352.41 168.267 352.693 167.142 353.26 166.125C353.827 165.092 354.618 164.267 355.635 163.65C356.652 163.017 357.843 162.7 359.21 162.7C360.577 162.7 361.752 163.017 362.735 163.65C363.735 164.267 364.51 165.083 365.06 166.1C365.61 167.117 365.885 168.208 365.885 169.375C365.885 169.575 365.877 169.767 365.86 169.95C365.843 170.117 365.827 170.258 365.81 170.375H355.335C355.385 171.142 355.593 171.817 355.96 172.4C356.343 172.967 356.827 173.417 357.41 173.75C357.993 174.067 358.618 174.225 359.285 174.225C360.018 174.225 360.71 174.042 361.36 173.675C362.027 173.308 362.477 172.825 362.71 172.225L365.06 172.9C364.777 173.533 364.343 174.108 363.76 174.625C363.193 175.125 362.518 175.525 361.735 175.825C360.952 176.108 360.102 176.25 359.185 176.25ZM355.26 168.55H363.16C363.11 167.8 362.893 167.142 362.51 166.575C362.143 165.992 361.668 165.542 361.085 165.225C360.518 164.892 359.885 164.725 359.185 164.725C358.502 164.725 357.868 164.892 357.285 165.225C356.718 165.542 356.252 165.992 355.885 166.575C355.518 167.142 355.31 167.8 355.26 168.55ZM368.153 157.75H370.903V172.225C370.903 172.892 371.003 173.317 371.203 173.5C371.403 173.683 371.653 173.775 371.953 173.775C372.286 173.775 372.595 173.742 372.878 173.675C373.178 173.608 373.436 173.525 373.653 173.425L374.053 175.6C373.653 175.767 373.178 175.908 372.628 176.025C372.078 176.142 371.586 176.2 371.153 176.2C370.22 176.2 369.486 175.942 368.953 175.425C368.42 174.892 368.153 174.158 368.153 173.225V157.75ZM393.77 172.832V176H381.546V172.832H386.09V161.664C385.898 161.92 385.6 162.187 385.194 162.464C384.789 162.741 384.33 163.008 383.818 163.264C383.328 163.499 382.826 163.691 382.314 163.84C381.802 163.989 381.333 164.064 380.906 164.064V160.768C381.333 160.768 381.824 160.64 382.378 160.384C382.933 160.128 383.477 159.829 384.01 159.488C384.565 159.125 385.034 158.784 385.418 158.464C385.802 158.123 386.026 157.877 386.09 157.728H389.706V172.832H393.77Z" fill="black"/>
</g>
<defs>
<clipPath id="clip0_2505_464">
<rect width="411" height="188" fill="white"/>
</clipPath>
</defs>
</svg>
